<?xml version="1.0" encoding="UTF-8" standalone="no"?>
<!-- Created with Inkscape (http://www.inkscape.org/) -->

<svg
   xmlns:dc="http://purl.org/dc/elements/1.1/"
   xmlns:cc="http://creativecommons.org/ns#"
   xmlns:rdf="http://www.w3.org/1999/02/22-rdf-syntax-ns#"
   xmlns:svg="http://www.w3.org/2000/svg"
   xmlns="http://www.w3.org/2000/svg"
   xmlns:sodipodi="http://sodipodi.sourceforge.net/DTD/sodipodi-0.dtd"
   xmlns:inkscape="http://www.inkscape.org/namespaces/inkscape"
   width="40"
   height="40"
   viewBox="0 0 10.583332 10.583333"
   version="1.1"
   id="svg3735"
   inkscape:version="0.92.5 (2060ec1f9f, 2020-04-08)"
   sodipodi:docname="ShowRdPinned.svg">
  <defs
     id="defs3729" />
  <sodipodi:namedview
     id="base"
     pagecolor="#ffffff"
     bordercolor="#666666"
     borderopacity="1.0"
     inkscape:pageopacity="0"
     inkscape:pageshadow="2"
     inkscape:zoom="9.15"
     inkscape:cx="48.42461"
     inkscape:cy="9.8347329"
     inkscape:document-units="px"
     inkscape:current-layer="layer1"
     showgrid="false"
     units="px"
     inkscape:window-width="1600"
     inkscape:window-height="847"
     inkscape:window-x="-8"
     inkscape:window-y="-8"
     inkscape:window-maximized="1"
     inkscape:pagecheckerboard="true" />
  <metadata
     id="metadata3732">
    <rdf:RDF>
      <cc:Work
         rdf:about="">
        <dc:format>image/svg+xml</dc:format>
        <dc:type
           rdf:resource="http://purl.org/dc/dcmitype/StillImage" />
        <dc:title />
      </cc:Work>
    </rdf:RDF>
  </metadata>
  <g
     inkscape:label="Ebene 1"
     inkscape:groupmode="layer"
     id="layer1"
     transform="translate(0,-286.41668)">
    <ellipse
       style="fill:#ffffff;fill-opacity:1;stroke:#808080;stroke-width:0.39983839;stroke-miterlimit:4;stroke-dasharray:none;stroke-opacity:1"
       id="path3737"
       cx="5.291666"
       cy="291.70834"
       rx="4.5625801"
       ry="4.5625806" />
    <path
       inkscape:connector-curvature="0"
       style="fill:#808080;fill-opacity:1;stroke-width:0.0128891"
       d="m 6.5977404,291.19365 -0.1527475,-1.57377 h 0.5269306 c 0.165482,0 0.2996266,-0.14299 0.2996266,-0.31936 v -0.63874 c 0,-0.17638 -0.1341446,-0.31936 -0.2996266,-0.31936 H 3.5761573 c -0.1654809,0 -0.2996265,0.14298 -0.2996265,0.31936 v 0.63874 c 0,0.17637 0.1341456,0.31936 0.2996265,0.31936 h 0.5269306 l -0.1527464,1.57377 c -0.6055825,0.3001 -1.0733125,0.83824 -1.0733125,1.51343 0,0.17637 0.1341457,0.31936 0.2996266,0.31936 h 1.6978831 v 1.38401 c 0,0.0165 0.00362,0.0327 0.010503,0.0476 l 0.2996266,0.63872 c 0.036719,0.0782 0.1418733,0.0784 0.1786648,0 l 0.2996266,-0.63872 a 0.09997536,0.10656143 0 0 0 0.010503,-0.0476 v -1.38401 h 1.6978821 c 0.165482,0 0.2996277,-0.14299 0.2996277,-0.31936 -1.36e-5,-0.6811 -0.4741972,-1.21652 -1.0733249,-1.51343 z"
       id="path2" />
  </g>
</svg>
