<?xml version="1.0" encoding="UTF-8" standalone="no"?>
<svg
   xmlns:dc="http://purl.org/dc/elements/1.1/"
   xmlns:cc="http://creativecommons.org/ns#"
   xmlns:rdf="http://www.w3.org/1999/02/22-rdf-syntax-ns#"
   xmlns:svg="http://www.w3.org/2000/svg"
   xmlns="http://www.w3.org/2000/svg"
   id="svg280"
   version="1.1"
   viewBox="0 0 32 32"
   width="32"
   height="32">
  <metadata
     id="metadata286">
    <rdf:RDF>
      <cc:Work
         rdf:about="">
        <dc:format>image/svg+xml</dc:format>
        <dc:type
           rdf:resource="http://purl.org/dc/dcmitype/StillImage" />
        <dc:title></dc:title>
      </cc:Work>
    </rdf:RDF>
  </metadata>
  <defs
     id="defs284" />
  <g
     id="g833">
    <path
       style="fill:none;fill-opacity:1;stroke:#ff3cff;stroke-width:1.19200003;stroke-linecap:round;stroke-linejoin:bevel;stroke-miterlimit:4;stroke-dasharray:none;stroke-dashoffset:0;stroke-opacity:1;paint-order:markers fill stroke"
       d="M 31.404187,16 A 15.404187,15.404188 0 0 1 16,31.404187 15.404187,15.404188 0 0 1 0.59581285,16 15.404187,15.404188 0 0 1 16,0.59581295 15.404187,15.404188 0 0 1 31.404187,16 Z"
       id="path1093" />
    <path
       style="fill:none;fill-opacity:1;stroke:#003cff;stroke-width:1.10225379;stroke-linecap:round;stroke-linejoin:bevel;stroke-miterlimit:4;stroke-dasharray:none;stroke-dashoffset:0;stroke-opacity:1;paint-order:markers fill stroke"
       d="M 30.248874,16 A 14.248873,14.248874 0 0 1 16,30.248874 14.248873,14.248874 0 0 1 1.7511268,16 14.248873,14.248874 0 0 1 16,1.7511273 14.248873,14.248874 0 0 1 30.248874,16 Z"
       id="path1093-2" />
  </g>
</svg>
